<svg width="654" height="595" viewBox="0 0 654 595" fill="none" xmlns="http://www.w3.org/2000/svg">
<g clip-path="url(#clip0_53_4)">
<path d="M563.62 54.7107L15.6253 213.97L30.1401 263.662L578.135 104.403L563.62 54.7107Z" fill="#3F3D56"/>
<path d="M81.0966 442.224L0.326458 165.705C-0.27235 163.655 -0.0301493 161.452 0.99974 159.58C2.02963 157.708 3.76285 156.32 5.81815 155.723L540.528 0.323898C542.584 -0.271391 544.792 -0.0289837 546.668 0.997937C548.544 2.02486 549.935 3.75238 550.536 5.8013L622.092 250.777L619.878 251.421L548.322 6.44491C547.892 4.982 546.898 3.74876 545.558 3.01535C544.218 2.28195 542.641 2.10818 541.173 2.53214L6.46324 157.931C4.99517 158.358 3.75716 159.349 3.02152 160.686C2.28589 162.023 2.11289 163.597 2.54059 165.062L83.3107 441.58L81.0966 442.224Z" fill="#3F3D56"/>
<path d="M503.743 251.915C502.12 251.913 500.542 251.388 499.244 250.417C497.947 249.446 496.999 248.082 496.543 246.528L482.996 200.149C482.443 198.246 482.668 196.201 483.624 194.463C484.58 192.726 486.188 191.437 488.095 190.881L534.592 177.368C536.501 176.815 538.551 177.041 540.293 177.995C542.035 178.948 543.326 180.552 543.884 182.455L557.431 228.834C557.985 230.737 557.759 232.782 556.803 234.52C555.847 236.258 554.239 237.546 552.332 238.103L505.836 251.616C505.156 251.814 504.451 251.915 503.743 251.915Z" fill="#5061C0"/>
<path d="M79.8476 166.56C79.7083 166.083 79.5427 165.615 79.3515 165.157C78.0515 162.009 75.6312 159.452 72.5558 157.977C69.4804 156.501 65.9668 156.211 62.6902 157.163C59.4135 158.114 56.6051 160.24 54.8043 163.132C53.0036 166.023 52.3377 169.477 52.9346 172.828C53.0184 173.317 53.1301 173.801 53.269 174.278C54.111 177.145 55.8614 179.662 58.2582 181.454C60.6549 183.245 63.5689 184.214 66.5639 184.215C67.8715 184.218 69.1727 184.032 70.4269 183.663C73.9472 182.637 76.9159 180.26 78.6819 177.054C80.4479 173.848 80.8671 170.074 79.8476 166.56ZM69.7811 181.455C66.8453 182.305 63.6914 181.959 61.0111 180.492C58.3307 179.026 56.3427 176.56 55.4829 173.634C55.3479 173.157 55.24 172.673 55.1597 172.184C54.7272 169.423 55.3179 166.599 56.8213 164.24C58.3247 161.882 60.6378 160.15 63.3283 159.369C66.0187 158.588 68.9022 158.812 71.4395 159.998C73.9768 161.183 75.9942 163.25 77.1145 165.812C77.3234 166.262 77.4969 166.727 77.6336 167.204C78.4846 170.132 78.1356 173.278 76.6633 175.95C75.1909 178.622 72.7157 180.602 69.7811 181.455Z" fill="#5061C0"/>
<path d="M45.9092 176.417C45.1713 173.889 45.2422 171.195 46.112 168.709C46.9818 166.223 48.6072 164.07 50.7618 162.549C48.7432 162.451 46.7303 162.835 44.8908 163.67C43.0513 164.505 41.4385 165.767 40.1866 167.349C38.9348 168.932 38.0802 170.79 37.6941 172.769C37.3079 174.748 37.4015 176.79 37.9668 178.725C38.5321 180.661 39.5529 182.433 40.9441 183.896C42.3354 185.358 44.0568 186.467 45.9649 187.132C47.8731 187.796 49.9127 187.996 51.9139 187.714C53.9152 187.433 55.8201 186.679 57.47 185.515C54.8336 185.386 52.3031 184.441 50.2309 182.81C48.1587 181.179 46.648 178.945 45.9092 176.417Z" fill="#5061C0"/>
<path d="M404.362 233.42C404.117 232.54 403.7 231.717 403.135 230.997C402.57 230.278 401.869 229.677 401.071 229.228C400.273 228.779 399.395 228.492 398.485 228.382C397.576 228.273 396.654 228.343 395.772 228.589L319.218 249.948L310.973 252.248H362.747L370.992 249.948L399.531 241.989C401.31 241.49 402.818 240.308 403.724 238.701C404.629 237.095 404.859 235.195 404.362 233.42Z" fill="#3F3D56"/>
<path d="M350.202 217.467C349.703 215.692 348.518 214.187 346.907 213.283C345.296 212.379 343.391 212.151 341.611 212.648L226.74 244.692C225.135 245.145 223.745 246.156 222.821 247.542C221.897 248.927 221.5 250.597 221.701 252.249H251.439L259.695 249.948L345.37 226.047C347.151 225.547 348.659 224.363 349.565 222.754C350.471 221.145 350.7 219.244 350.202 217.467Z" fill="#3F3D56"/>
<path d="M645.928 249.946H88.9841C86.8441 249.948 84.7924 250.797 83.2792 252.306C81.766 253.816 80.9148 255.862 80.9124 257.997V586.949C80.9147 589.083 81.7659 591.13 83.2791 592.639C84.7923 594.149 86.844 594.998 88.9841 595H645.928C648.068 594.998 650.12 594.149 651.633 592.639C653.146 591.13 653.998 589.083 654 586.949V257.997C653.997 255.862 653.146 253.816 651.633 252.306C650.12 250.797 648.068 249.948 645.928 249.946ZM651.694 586.949C651.693 588.474 651.086 589.936 650.005 591.015C648.923 592.093 647.457 592.699 645.928 592.7H88.9841C87.4551 592.699 85.989 592.093 84.9079 591.015C83.8268 589.936 83.2191 588.474 83.2186 586.949V257.997C83.2193 256.472 83.8269 255.009 84.908 253.931C85.9891 252.853 87.4552 252.247 88.9841 252.246H645.928C647.457 252.247 648.923 252.853 650.004 253.931C651.085 255.009 651.693 256.472 651.694 257.997V586.949Z" fill="#3F3D56"/>
<path d="M143.175 294.805C140.439 294.805 137.763 293.996 135.488 292.479C133.212 290.962 131.439 288.807 130.391 286.285C129.344 283.763 129.07 280.988 129.604 278.31C130.138 275.633 131.456 273.174 133.391 271.243C135.326 269.313 137.792 267.999 140.476 267.466C143.16 266.933 145.942 267.207 148.471 268.251C150.999 269.296 153.16 271.065 154.68 273.335C156.201 275.605 157.012 278.273 157.012 281.003C157.008 284.662 155.549 288.17 152.955 290.758C150.361 293.345 146.844 294.801 143.175 294.805ZM143.175 269.501C140.895 269.501 138.665 270.176 136.769 271.44C134.873 272.703 133.395 274.5 132.522 276.601C131.649 278.703 131.421 281.016 131.866 283.247C132.311 285.478 133.409 287.527 135.022 289.136C136.634 290.745 138.689 291.84 140.926 292.284C143.163 292.728 145.481 292.5 147.588 291.629C149.695 290.759 151.496 289.284 152.763 287.393C154.03 285.502 154.706 283.278 154.706 281.003C154.703 277.954 153.487 275.03 151.325 272.874C149.163 270.717 146.232 269.505 143.175 269.501Z" fill="#5061C0"/>
<path d="M121.668 281.003C121.668 278.37 122.492 275.803 124.024 273.659C125.556 271.515 127.72 269.902 130.216 269.043C128.305 268.385 126.265 268.193 124.264 268.481C122.264 268.77 120.362 269.53 118.716 270.701C117.071 271.871 115.729 273.416 114.803 275.208C113.878 277 113.395 278.987 113.395 281.003C113.395 283.019 113.878 285.006 114.803 286.798C115.729 288.59 117.071 290.135 118.716 291.305C120.362 292.476 122.264 293.236 124.264 293.525C126.265 293.813 128.305 293.621 130.216 292.963C127.72 292.104 125.556 290.491 124.024 288.347C122.492 286.203 121.668 283.636 121.668 281.003Z" fill="#5061C0"/>
<path d="M199.266 444.074C196.515 444.07 193.877 442.979 191.931 441.038C189.986 439.098 188.891 436.466 188.888 433.722V402.667C188.888 399.922 189.982 397.289 191.928 395.347C193.874 393.406 196.514 392.315 199.266 392.315C202.018 392.315 204.658 393.406 206.604 395.347C208.55 397.289 209.644 399.922 209.644 402.667V433.722C209.641 436.466 208.546 439.097 206.601 441.038C204.655 442.979 202.017 444.07 199.266 444.074Z" fill="#5061C0"/>
<path d="M226.94 444.074C224.189 444.07 221.551 442.979 219.605 441.038C217.66 439.098 216.566 436.466 216.562 433.722V402.667C216.562 399.922 217.656 397.289 219.602 395.347C221.548 393.406 224.188 392.315 226.94 392.315C229.693 392.315 232.332 393.406 234.278 395.347C236.225 397.289 237.318 399.922 237.318 402.667V433.722C237.315 436.466 236.221 439.097 234.275 441.038C232.329 442.979 229.692 444.07 226.94 444.074Z" fill="#5061C0"/>
<path d="M254.614 444.074C251.863 444.07 249.225 442.979 247.28 441.038C245.334 439.098 244.24 436.466 244.237 433.722V402.667C244.237 399.922 245.33 397.289 247.276 395.347C249.222 393.406 251.862 392.315 254.614 392.315C257.367 392.315 260.006 393.406 261.953 395.347C263.899 397.289 264.992 399.922 264.992 402.667V433.722C264.989 436.466 263.895 439.097 261.949 441.038C260.004 442.979 257.366 444.07 254.614 444.074Z" fill="#5061C0"/>
<path d="M297.279 444.074C294.527 444.07 291.89 442.979 289.944 441.038C287.999 439.098 286.904 436.466 286.901 433.722V402.667C286.901 399.922 287.994 397.289 289.941 395.347C291.887 393.406 294.527 392.315 297.279 392.315C300.031 392.315 302.671 393.406 304.617 395.347C306.563 397.289 307.657 399.922 307.657 402.667V433.722C307.654 436.466 306.559 439.097 304.614 441.038C302.668 442.979 300.03 444.07 297.279 444.074Z" fill="#5061C0"/>
<path d="M324.953 444.074C322.202 444.07 319.564 442.979 317.618 441.038C315.673 439.098 314.578 436.466 314.575 433.722V402.667C314.575 399.922 315.669 397.289 317.615 395.347C319.561 393.406 322.201 392.315 324.953 392.315C327.705 392.315 330.345 393.406 332.291 395.347C334.238 397.289 335.331 399.922 335.331 402.667V433.722C335.328 436.466 334.233 439.097 332.288 441.038C330.342 442.979 327.704 444.07 324.953 444.074Z" fill="#5061C0"/>
<path d="M352.627 444.074C349.876 444.07 347.238 442.979 345.293 441.038C343.347 439.098 342.253 436.466 342.25 433.722V402.667C342.25 399.922 343.343 397.289 345.289 395.347C347.235 393.406 349.875 392.315 352.627 392.315C355.38 392.315 358.019 393.406 359.966 395.347C361.912 397.289 363.005 399.922 363.005 402.667V433.722C363.002 436.466 361.908 439.097 359.962 441.038C358.017 442.979 355.379 444.07 352.627 444.074Z" fill="#5061C0"/>
<path d="M395.292 444.074C392.54 444.07 389.903 442.979 387.957 441.038C386.011 439.098 384.917 436.466 384.914 433.722V402.667C384.914 399.922 386.007 397.289 387.953 395.347C389.9 393.406 392.539 392.315 395.292 392.315C398.044 392.315 400.684 393.406 402.63 395.347C404.576 397.289 405.67 399.922 405.67 402.667V433.722C405.666 436.466 404.572 439.097 402.626 441.038C400.681 442.979 398.043 444.07 395.292 444.074Z" fill="#5061C0"/>
<path d="M422.966 444.074C420.215 444.07 417.577 442.979 415.631 441.038C413.686 439.098 412.591 436.466 412.588 433.722V402.667C412.588 399.922 413.682 397.289 415.628 395.347C417.574 393.406 420.214 392.315 422.966 392.315C425.718 392.315 428.358 393.406 430.304 395.347C432.25 397.289 433.344 399.922 433.344 402.667V433.722C433.341 436.466 432.246 439.097 430.301 441.038C428.355 442.979 425.717 444.07 422.966 444.074Z" fill="#5061C0"/>
<path d="M450.64 444.074C447.889 444.07 445.251 442.979 443.306 441.038C441.36 439.098 440.266 436.466 440.262 433.722V402.667C440.262 399.922 441.356 397.289 443.302 395.347C445.248 393.406 447.888 392.315 450.64 392.315C453.393 392.315 456.032 393.406 457.978 395.347C459.925 397.289 461.018 399.922 461.018 402.667V433.722C461.015 436.466 459.921 439.097 457.975 441.038C456.029 442.979 453.392 444.07 450.64 444.074Z" fill="#5061C0"/>
<path d="M493.305 444.074C490.553 444.07 487.915 442.979 485.97 441.038C484.024 439.098 482.93 436.466 482.927 433.722V402.667C482.927 399.922 484.02 397.289 485.966 395.347C487.913 393.406 490.552 392.315 493.305 392.315C496.057 392.315 498.697 393.406 500.643 395.347C502.589 397.289 503.682 399.922 503.682 402.667V433.722C503.679 436.466 502.585 439.097 500.639 441.038C498.694 442.979 496.056 444.07 493.305 444.074Z" fill="#5061C0"/>
<path d="M520.979 444.074C518.227 444.07 515.59 442.979 513.644 441.038C511.699 439.098 510.604 436.466 510.601 433.722V402.667C510.601 399.922 511.694 397.289 513.641 395.347C515.587 393.406 518.226 392.315 520.979 392.315C523.731 392.315 526.371 393.406 528.317 395.347C530.263 397.289 531.357 399.922 531.357 402.667V433.722C531.354 436.466 530.259 439.097 528.314 441.038C526.368 442.979 523.73 444.07 520.979 444.074Z" fill="#5061C0"/>
<path d="M548.653 444.074C545.902 444.07 543.264 442.979 541.318 441.038C539.373 439.098 538.278 436.466 538.275 433.722V402.667C538.275 399.922 539.369 397.289 541.315 395.347C543.261 393.406 545.901 392.315 548.653 392.315C551.405 392.315 554.045 393.406 555.991 395.347C557.937 397.289 559.031 399.922 559.031 402.667V433.722C559.028 436.466 557.933 439.097 555.988 441.038C554.042 442.979 551.404 444.07 548.653 444.074Z" fill="#5061C0"/>
<path d="M269.626 559.284H120.369C118.519 559.284 116.746 558.551 115.438 557.246C114.13 555.942 113.396 554.173 113.396 552.328C113.396 550.483 114.13 548.714 115.438 547.41C116.746 546.105 118.519 545.372 120.369 545.372H269.626C271.475 545.372 273.249 546.105 274.556 547.41C275.864 548.714 276.599 550.483 276.599 552.328C276.599 554.173 275.864 555.942 274.556 557.246C273.249 558.551 271.475 559.284 269.626 559.284Z" fill="#3F3D56"/>
<path d="M221.772 529.379H168.222C166.373 529.379 164.599 528.646 163.291 527.342C161.984 526.037 161.249 524.268 161.249 522.423C161.249 520.579 161.984 518.809 163.291 517.505C164.599 516.201 166.373 515.468 168.222 515.468H221.772C223.622 515.468 225.395 516.201 226.703 517.505C228.011 518.809 228.745 520.579 228.745 522.423C228.745 524.268 228.011 526.037 226.703 527.342C225.395 528.646 223.622 529.379 221.772 529.379Z" fill="#3F3D56"/>
<path d="M651.278 318.704H82.8036V321.004H651.278V318.704Z" fill="#3F3D56"/>
</g>
<defs>
<clipPath id="clip0_53_4">
<rect width="654" height="595" fill="white"/>
</clipPath>
</defs>
</svg>
