<svg width="112" height="20" viewBox="0 0 112 20" fill="none" xmlns="http://www.w3.org/2000/svg">
<path d="M0.601562 0.683594H10.3867C11.582 0.683594 12.6211 0.8125 13.5039 1.07031C14.3945 1.32031 15.1328 1.66797 15.7188 2.11328C16.3047 2.55859 16.7383 3.08984 17.0195 3.70703C17.3086 4.31641 17.4531 4.97656 17.4531 5.6875C17.4531 6.85156 17.0859 7.87109 16.3516 8.74609C17.1953 9.24609 17.8242 9.89453 18.2383 10.6914C18.6523 11.4883 18.8594 12.3945 18.8594 13.4102C18.8594 14.2617 18.7148 15.0312 18.4258 15.7188C18.1445 16.4062 17.7109 16.9961 17.125 17.4883C16.5469 17.9727 15.8125 18.3477 14.9219 18.6133C14.0391 18.8711 12.9961 19 11.793 19H0.601562V0.683594ZM11.8164 7.71484C12.1367 7.71484 12.4492 7.72656 12.7539 7.75C13.2773 7.25 13.5391 6.67969 13.5391 6.03906C13.5391 5.375 13.2773 4.86328 12.7539 4.50391C12.2383 4.13672 11.4805 3.95312 10.4805 3.95312H4.31641V7.71484H11.8164ZM11.8867 15.7656C12.8867 15.7656 13.6445 15.5508 14.1602 15.1211C14.6836 14.6914 14.9453 14.0859 14.9453 13.3047C14.9453 12.5234 14.6836 11.9141 14.1602 11.4766C13.6445 11.0391 12.8867 10.8203 11.8867 10.8203H4.31641V15.7656H11.8867ZM28.8789 0.683594H32.8164L41.6758 19H37.7734L36.3086 15.918H25.6094L24.1914 19H20.2773L28.8789 0.683594ZM34.8438 12.8594L30.8828 4.53906L27.0273 12.8594H34.8438ZM44.5 0.683594H48.2148L59.6289 6.66016V0.683594H63.3438V19H59.6289V10.5977L48.2148 4.65625V19H44.5V0.683594ZM68.5234 0.683594H72.2383V10.1641L81.9062 0.683594H86.6641L77.6406 9.42578L86.6641 19H81.7188L74.9688 12.0156L72.2383 14.6523V19H68.5234V0.683594ZM88.1289 16.9727C88.1289 16.6602 88.1914 16.3672 88.3164 16.0938C88.4492 15.8125 88.6367 15.5703 88.8789 15.3672C89.1211 15.1562 89.4141 14.9922 89.7578 14.875C90.1016 14.7578 90.4883 14.6992 90.918 14.6992C91.3477 14.6992 91.7344 14.7578 92.0781 14.875C92.4219 14.9922 92.7109 15.1562 92.9453 15.3672C93.1875 15.5703 93.3711 15.8125 93.4961 16.0938C93.6289 16.3672 93.6953 16.6602 93.6953 16.9727C93.6953 17.2852 93.6289 17.582 93.4961 17.8633C93.3711 18.1367 93.1875 18.375 92.9453 18.5781C92.7109 18.7812 92.4219 18.9414 92.0781 19.0586C91.7344 19.1836 91.3477 19.2461 90.918 19.2461C90.4883 19.2461 90.1016 19.1836 89.7578 19.0586C89.4141 18.9414 89.1211 18.7812 88.8789 18.5781C88.6367 18.375 88.4492 18.1367 88.3164 17.8633C88.1914 17.582 88.1289 17.2852 88.1289 16.9727ZM98.2764 9.83301C98.0758 9.83301 97.8936 9.80566 97.7295 9.75098C97.57 9.69173 97.4333 9.61426 97.3193 9.51855C97.2054 9.41829 97.1165 9.30436 97.0527 9.17676C96.9935 9.0446 96.9639 8.9056 96.9639 8.75977C96.9639 8.60938 96.9935 8.47038 97.0527 8.34277C97.1165 8.21061 97.2054 8.09668 97.3193 8.00098C97.4333 7.90527 97.57 7.83008 97.7295 7.77539C97.8936 7.71615 98.0758 7.68652 98.2764 7.68652C98.4814 7.68652 98.6637 7.71615 98.8232 7.77539C98.9873 7.83008 99.1263 7.90527 99.2402 8.00098C99.3542 8.09668 99.4408 8.21061 99.5 8.34277C99.5638 8.47038 99.5957 8.60938 99.5957 8.75977C99.5957 8.9056 99.5638 9.0446 99.5 9.17676C99.4408 9.30436 99.3542 9.41829 99.2402 9.51855C99.1263 9.61426 98.9873 9.69173 98.8232 9.75098C98.6637 9.80566 98.4814 9.83301 98.2764 9.83301ZM97.2646 10.9336H99.2881V19H97.2646V10.9336ZM101.4 14.9668C101.4 14.388 101.517 13.8457 101.749 13.3398C101.986 12.834 102.321 12.3919 102.754 12.0137C103.191 11.6354 103.718 11.3369 104.333 11.1182C104.953 10.8994 105.648 10.79 106.418 10.79C107.188 10.79 107.881 10.8994 108.496 11.1182C109.116 11.3369 109.642 11.6354 110.075 12.0137C110.513 12.3919 110.848 12.834 111.08 13.3398C111.317 13.8457 111.436 14.388 111.436 14.9668C111.436 15.5456 111.317 16.0879 111.08 16.5938C110.848 17.0996 110.513 17.5417 110.075 17.9199C109.642 18.2982 109.116 18.5967 108.496 18.8154C107.881 19.0342 107.188 19.1436 106.418 19.1436C105.648 19.1436 104.953 19.0342 104.333 18.8154C103.718 18.5967 103.191 18.2982 102.754 17.9199C102.321 17.5417 101.986 17.0996 101.749 16.5938C101.517 16.0879 101.4 15.5456 101.4 14.9668ZM103.526 14.9668C103.526 15.2904 103.59 15.598 103.718 15.8896C103.85 16.1768 104.039 16.432 104.285 16.6553C104.536 16.874 104.839 17.0495 105.194 17.1816C105.554 17.3092 105.962 17.373 106.418 17.373C106.874 17.373 107.279 17.3092 107.635 17.1816C107.995 17.0495 108.298 16.874 108.544 16.6553C108.795 16.432 108.984 16.1768 109.111 15.8896C109.243 15.598 109.31 15.2904 109.31 14.9668C109.31 14.6432 109.243 14.3356 109.111 14.0439C108.984 13.7523 108.795 13.4971 108.544 13.2783C108.298 13.055 107.995 12.8796 107.635 12.752C107.279 12.6198 106.874 12.5537 106.418 12.5537C105.962 12.5537 105.554 12.6198 105.194 12.752C104.839 12.8796 104.536 13.055 104.285 13.2783C104.039 13.4971 103.85 13.7523 103.718 14.0439C103.59 14.3356 103.526 14.6432 103.526 14.9668Z" fill="url(#paint0_linear_27_150)"/>
<defs>
<linearGradient id="paint0_linear_27_150" x1="4.53409" y1="2" x2="117.932" y2="39.6616" gradientUnits="userSpaceOnUse">
<stop stop-color="#5061C0"/>
<stop offset="1" stop-color="#9DA9E9" stop-opacity="0.67"/>
</linearGradient>
</defs>
</svg>
