<svg width="40" height="40" viewBox="0 0 40 40" fill="none" xmlns="http://www.w3.org/2000/svg">
<g clip-path="url(#clip0_27_392)">
<path d="M20.0097 0.302979C11.7851 0.302979 9.37975 0.311463 8.91219 0.350251C7.22436 0.490554 6.17409 0.756312 5.02988 1.32601C4.14809 1.76389 3.45266 2.27146 2.76631 2.98298C1.51635 4.28055 0.758798 5.87692 0.484564 7.77449C0.351235 8.69571 0.312448 8.88358 0.304569 13.589C0.301539 15.1575 0.304569 17.2218 0.304569 19.9906C0.304569 28.2087 0.31366 30.6118 0.353053 31.0784C0.489412 32.7209 0.74698 33.7542 1.29242 34.8845C2.33481 37.0481 4.32566 38.6724 6.67104 39.2784C7.48314 39.4875 8.38008 39.6027 9.53156 39.6572C10.0194 39.6784 14.992 39.6936 19.9676 39.6936C24.9432 39.6936 29.9188 39.6875 30.3946 39.6633C31.7279 39.6006 32.5021 39.4966 33.3581 39.2754C35.7186 38.6663 37.6731 37.0663 38.7367 34.8724C39.2716 33.7693 39.5428 32.6966 39.6655 31.1399C39.6922 30.8006 39.7034 25.3893 39.7034 19.9854C39.7034 14.5806 39.6913 9.17934 39.6646 8.83995C39.5404 7.25813 39.2691 6.19449 38.717 5.07025C38.264 4.14995 37.761 3.46268 37.0307 2.75995C35.7274 1.5151 34.1335 0.757524 32.2342 0.483585C31.3139 0.350554 31.1306 0.31116 26.4217 0.302979H20.0097Z" fill="url(#paint0_radial_27_392)"/>
<path d="M20.0097 0.302979C11.7851 0.302979 9.37975 0.311463 8.91219 0.350251C7.22436 0.490554 6.17409 0.756312 5.02988 1.32601C4.14809 1.76389 3.45266 2.27146 2.76631 2.98298C1.51635 4.28055 0.758798 5.87692 0.484564 7.77449C0.351235 8.69571 0.312448 8.88358 0.304569 13.589C0.301539 15.1575 0.304569 17.2218 0.304569 19.9906C0.304569 28.2087 0.31366 30.6118 0.353053 31.0784C0.489412 32.7209 0.74698 33.7542 1.29242 34.8845C2.33481 37.0481 4.32566 38.6724 6.67104 39.2784C7.48314 39.4875 8.38008 39.6027 9.53156 39.6572C10.0194 39.6784 14.992 39.6936 19.9676 39.6936C24.9432 39.6936 29.9188 39.6875 30.3946 39.6633C31.7279 39.6006 32.5021 39.4966 33.3581 39.2754C35.7186 38.6663 37.6731 37.0663 38.7367 34.8724C39.2716 33.7693 39.5428 32.6966 39.6655 31.1399C39.6922 30.8006 39.7034 25.3893 39.7034 19.9854C39.7034 14.5806 39.6913 9.17934 39.6646 8.83995C39.5404 7.25813 39.2691 6.19449 38.717 5.07025C38.264 4.14995 37.761 3.46268 37.0307 2.75995C35.7274 1.5151 34.1335 0.757524 32.2342 0.483585C31.3139 0.350554 31.1306 0.31116 26.4217 0.302979H20.0097Z" fill="url(#paint1_radial_27_392)"/>
<path d="M20.0008 5.45459C16.0506 5.45459 15.5549 5.47186 14.0034 5.54247C12.455 5.61338 11.398 5.85853 10.4732 6.21823C9.51659 6.58974 8.7051 7.08671 7.89664 7.8955C7.08757 8.70398 6.59062 9.5155 6.2179 10.4719C5.8573 11.397 5.61186 12.4543 5.54216 14.0022C5.47277 15.5537 5.45459 16.0497 5.45459 20C5.45459 23.9503 5.47217 24.4446 5.54247 25.9961C5.61368 27.5446 5.85882 28.6016 6.2182 29.5264C6.59001 30.4831 7.08696 31.2946 7.89573 32.1031C8.70389 32.9122 9.51538 33.4103 10.4714 33.7819C11.3968 34.1416 12.4541 34.3867 14.0022 34.4576C15.5537 34.5282 16.0491 34.5455 19.999 34.5455C23.9495 34.5455 24.4437 34.5282 25.9952 34.4576C27.5436 34.3867 28.6018 34.1416 29.5272 33.7819C30.4835 33.4103 31.2938 32.9122 32.102 32.1031C32.911 31.2946 33.408 30.4831 33.7807 29.5267C34.1383 28.6016 34.3837 27.5443 34.4564 25.9964C34.5261 24.4449 34.5443 23.9503 34.5443 20C34.5443 16.0497 34.5261 15.554 34.4564 14.0025C34.3837 12.454 34.1383 11.397 33.7807 10.4722C33.408 9.5155 32.911 8.70398 32.102 7.8955C31.2929 7.08641 30.4838 6.58944 29.5263 6.21823C28.599 5.85853 27.5415 5.61338 25.9931 5.54247C24.4416 5.47186 23.9477 5.45459 19.9963 5.45459H20.0008ZM18.696 8.0758C19.0833 8.0752 19.5154 8.0758 20.0008 8.0758C23.8843 8.0758 24.3446 8.08974 25.8782 8.15944C27.2964 8.22429 28.066 8.46126 28.5787 8.66035C29.2575 8.92398 29.7414 9.23914 30.2502 9.74823C30.7593 10.2573 31.0744 10.7422 31.3387 11.421C31.5377 11.9331 31.775 12.7028 31.8396 14.121C31.9092 15.6543 31.9244 16.1149 31.9244 19.9967C31.9244 23.8785 31.9092 24.3391 31.8396 25.8725C31.7747 27.2907 31.5377 28.0603 31.3387 28.5725C31.075 29.2513 30.7593 29.7346 30.2502 30.2434C29.7411 30.7525 29.2578 31.0676 28.5787 31.3313C28.0666 31.5313 27.2964 31.7676 25.8782 31.8325C24.3449 31.9022 23.8843 31.9173 20.0008 31.9173C16.117 31.9173 15.6567 31.9022 14.1234 31.8325C12.7053 31.767 11.9356 31.53 11.4226 31.331C10.7438 31.0673 10.259 30.7522 9.74991 30.2431C9.24084 29.734 8.9257 29.2503 8.66146 28.5713C8.46238 28.0591 8.22511 27.2894 8.16057 25.8713C8.09087 24.3379 8.07693 23.8773 8.07693 19.9931C8.07693 16.1088 8.09087 15.6507 8.16057 14.1173C8.22542 12.6991 8.46238 11.9294 8.66146 11.4167C8.92509 10.7379 9.24084 10.2531 9.74991 9.74398C10.259 9.23489 10.7438 8.91974 11.4226 8.6555C11.9353 8.4555 12.7053 8.21914 14.1234 8.15398C15.4652 8.09338 15.9852 8.0752 18.696 8.07217V8.0758ZM27.7648 10.491C26.8012 10.491 26.0194 11.2719 26.0194 12.2358C26.0194 13.1994 26.8012 13.9813 27.7648 13.9813C28.7284 13.9813 29.5102 13.1994 29.5102 12.2358C29.5102 11.2722 28.7284 10.4903 27.7648 10.4903V10.491ZM20.0008 12.5303C15.8758 12.5303 12.5313 15.8749 12.5313 20C12.5313 24.1252 15.8758 27.4682 20.0008 27.4682C24.1258 27.4682 27.4691 24.1252 27.4691 20C27.4691 15.8749 24.1258 12.5303 20.0008 12.5303ZM20.0008 15.1516C22.6783 15.1516 24.8492 17.3222 24.8492 20C24.8492 22.6776 22.6783 24.8485 20.0008 24.8485C17.323 24.8485 15.1525 22.6776 15.1525 20C15.1525 17.3222 17.323 15.1516 20.0008 15.1516Z" fill="white"/>
</g>
<defs>
<radialGradient id="paint0_radial_27_392" cx="0" cy="0" r="1" gradientUnits="userSpaceOnUse" gradientTransform="translate(10.7689 42.7275) rotate(-90) scale(39.039 36.3181)">
<stop stop-color="#FFDD55"/>
<stop offset="0.1" stop-color="#FFDD55"/>
<stop offset="0.5" stop-color="#FF543E"/>
<stop offset="1" stop-color="#C837AB"/>
</radialGradient>
<radialGradient id="paint1_radial_27_392" cx="0" cy="0" r="1" gradientUnits="userSpaceOnUse" gradientTransform="translate(-6.29651 3.14061) rotate(78.678) scale(17.4508 71.9489)">
<stop stop-color="#3771C8"/>
<stop offset="0.128" stop-color="#3771C8"/>
<stop offset="1" stop-color="#6600FF" stop-opacity="0"/>
</radialGradient>
<clipPath id="clip0_27_392">
<rect width="40" height="40" fill="white"/>
</clipPath>
</defs>
</svg>
